<?xml version="1.0" encoding="UTF-8"?>
<!DOCTYPE svg PUBLIC "-//W3C//DTD SVG 1.1//EN" "http://www.w3.org/Graphics/SVG/1.1/DTD/svg11.dtd">
<svg xmlns="http://www.w3.org/2000/svg" version="1.1" width="1500px" height="666px" style="shape-rendering:geometricPrecision; text-rendering:geometricPrecision; image-rendering:optimizeQuality; fill-rule:evenodd; clip-rule:evenodd" xmlns:xlink="http://www.w3.org/1999/xlink">
<g><path style="opacity:0.947" fill="#83b33c" d="M 125.5,-0.5 C 127.5,-0.5 129.5,-0.5 131.5,-0.5C 154.121,7.96371 164.954,24.297 164,48.5C 163.612,49.428 162.945,50.0946 162,50.5C 134.097,44.6761 121.93,27.6761 125.5,-0.5 Z"/></g>
<g><path style="opacity:0.944" fill="#52a044" d="M 176.5,6.5 C 199.909,22.8016 204.742,43.4683 191,68.5C 172.653,58.4652 165.653,43.1319 170,22.5C 171.49,16.8569 173.657,11.5236 176.5,6.5 Z"/></g>
<g><path style="opacity:0.936" fill="#a1c036" d="M 104.5,29.5 C 116.587,29.9599 126.754,34.6265 135,43.5C 135.667,44.1667 135.667,44.8333 135,45.5C 115.712,59.1893 98.5453,56.8559 83.5,38.5C 90.0207,34.1132 97.0207,31.1132 104.5,29.5 Z"/></g>
<g><path style="opacity:0.958" fill="#a1c036" d="M 232.5,29.5 C 245.125,54.5267 240.792,76.36 219.5,95C 215.167,98 210.833,101 206.5,104C 205.5,104.667 204.5,104.667 203.5,104C 191.916,70.5457 201.583,45.7124 232.5,29.5 Z"/></g>
<g><path style="opacity:0.946" fill="#52a044" d="M 301.5,40.5 C 316.603,59.8537 316.103,78.8537 300,97.5C 297.961,99.8745 295.628,101.874 293,103.5C 284.679,92.8813 281.679,80.8813 284,67.5C 287.197,56.8006 293.031,47.8006 301.5,40.5 Z"/></g>
<g><path style="opacity:0.937" fill="#a1c036" d="M 269.5,52.5 C 271.5,52.5 273.5,52.5 275.5,52.5C 276.989,68.1624 270.655,79.3291 256.5,86C 250.767,88.058 244.934,89.558 239,90.5C 238.979,80.2294 241.979,70.8961 248,62.5C 254.219,56.9361 261.386,53.6028 269.5,52.5 Z"/></g>
<g><path style="opacity:0.949" fill="#83b33c" d="M 121.5,57.5 C 138.688,55.6785 151.855,62.0119 161,76.5C 163.561,81.5211 165.728,86.6877 167.5,92C 140.074,97.9529 122.408,87.4529 114.5,60.5C 116.875,59.3395 119.208,58.3395 121.5,57.5 Z"/></g>
<g><path style="opacity:0.955" fill="#2b4849" d="M 173.5,66.5 C 174.873,66.3433 176.207,66.51 177.5,67C 192.034,82.2388 200.534,100.406 203,121.5C 209.251,113.247 216.751,106.414 225.5,101C 227.909,99.2932 230.575,98.4598 233.5,98.5C 233.649,99.552 233.483,100.552 233,101.5C 215.359,120.412 207.192,142.912 208.5,169C 209.024,181.853 209.857,194.687 211,207.5C 214.333,202.833 217.667,198.167 221,193.5C 237.695,176.471 254.695,159.804 272,143.5C 277.615,135.93 282.448,127.93 286.5,119.5C 287.943,127.789 286.609,135.622 282.5,143C 290.382,141.528 298.382,140.361 306.5,139.5C 310.922,139.904 315.256,140.737 319.5,142C 321.037,143.11 321.703,144.61 321.5,146.5C 306.44,144.012 292.44,146.845 279.5,155C 248.24,176.502 227.24,205.502 216.5,242C 216.667,242.5 216.833,243 217,243.5C 232.778,219.044 254.945,204.211 283.5,199C 301.652,196.606 317.152,201.773 330,214.5C 339.472,227.799 340.806,241.799 334,256.5C 327.007,264.447 318.174,268.447 307.5,268.5C 308.063,256.714 307.229,245.047 305,233.5C 296.01,211.282 281.177,206.448 260.5,219C 245.422,232.981 235.922,250.147 232,270.5C 226.929,297.589 224.429,324.922 224.5,352.5C 242.354,352.762 260.021,351.096 277.5,347.5C 279.266,347.434 280.266,348.268 280.5,350C 276.669,356.768 271.002,361.434 263.5,364C 251.144,367.91 238.478,369.744 225.5,369.5C 225.508,394.176 226.008,418.842 227,443.5C 227.206,465.535 231.873,486.535 241,506.5C 245.906,514.408 251.906,521.408 259,527.5C 260.833,533.004 258.833,535.67 253,535.5C 250.366,535.066 247.866,534.233 245.5,533C 235.23,524.899 226.563,515.399 219.5,504.5C 216.29,501.778 212.624,500.944 208.5,502C 204.421,504.075 200.921,506.908 198,510.5C 190.027,523.812 180.527,535.979 169.5,547C 166.443,549.723 163.11,552.056 159.5,554C 155.833,554.667 152.167,554.667 148.5,554C 145.651,551.441 144.817,548.274 146,544.5C 166.645,526.556 178.978,503.889 183,476.5C 187.595,441.325 189.428,405.992 188.5,370.5C 176.792,371.038 165.125,372.038 153.5,373.5C 153.343,372.127 153.51,370.793 154,369.5C 163.416,359.853 174.916,354.52 188.5,353.5C 189.95,334.386 187.784,315.719 182,297.5C 170.08,271.615 150.08,261.949 122,268.5C 120.833,268.167 119.667,267.833 118.5,267.5C 125.023,262.936 132.356,260.436 140.5,260C 152.687,259.241 164.687,260.408 176.5,263.5C 167.391,236.103 150.724,214.603 126.5,199C 115.454,193.488 103.788,189.988 91.5,188.5C 92.714,186.931 94.3807,186.098 96.5,186C 106.257,185.357 115.923,185.69 125.5,187C 122.214,179.392 121.714,171.559 124,163.5C 124.414,163.043 124.914,162.709 125.5,162.5C 126.254,171.263 129.087,179.263 134,186.5C 141.916,195.419 150.749,203.252 160.5,210C 171.732,220.563 182.232,231.73 192,243.5C 193.045,215.785 192.379,188.118 190,160.5C 188.926,142.581 182.426,127.081 170.5,114C 168.167,112.333 165.833,110.667 163.5,109C 157.018,106.239 150.685,103.406 144.5,100.5C 145.438,99.4471 146.605,98.7804 148,98.5C 163.365,99.519 176.698,105.186 188,115.5C 188.044,109.045 187.044,102.711 185,96.5C 181.25,86.4079 177.416,76.4079 173.5,66.5 Z"/></g>
<g><path style="opacity:0.957" fill="#83b33c" d="M 339.5,80.5 C 342.833,80.5 346.167,80.5 349.5,80.5C 350.607,105.141 339.941,122.308 317.5,132C 309.426,135.048 301.093,136.881 292.5,137.5C 293.296,106.052 308.963,87.0517 339.5,80.5 Z"/></g>
<g><path style="opacity:0.946" fill="#83b33c" d="M 101.5,91.5 C 118.986,100.468 126.486,114.801 124,134.5C 122.914,140.926 120.748,146.926 117.5,152.5C 99.9446,143.054 92.7779,128.387 96,108.5C 97.5408,102.712 99.3741,97.045 101.5,91.5 Z"/></g>
<g><path style="opacity:0.961" fill="#83b33c" d="M 247.5,105.5 C 249.124,105.36 250.29,106.027 251,107.5C 260.488,132.046 255.322,152.88 235.5,170C 230.254,173.875 224.754,177.375 219,180.5C 214.837,165.258 214.504,149.925 218,134.5C 224.411,121.255 234.244,111.588 247.5,105.5 Z"/></g>
<g><path style="opacity:0.932" fill="#a1c036" d="M 139.5,108.5 C 159.62,107.043 171.953,116.043 176.5,135.5C 164.922,137.942 153.922,136.442 143.5,131C 137.041,125.579 133.041,118.745 131.5,110.5C 134.373,110.198 137.039,109.531 139.5,108.5 Z"/></g>
<g><path style="opacity:0.948" fill="#a1c036" d="M 350.5,120.5 C 366.787,118.872 380.454,124.038 391.5,136C 382.607,143.779 372.274,148.279 360.5,149.5C 348.054,147.943 337.054,143.11 327.5,135C 333.948,128.116 341.615,123.283 350.5,120.5 Z"/></g>
<g><path style="opacity:0.956" fill="#52a044" d="M 55.5,133.5 C 91.3136,130.986 112.647,147.319 119.5,182.5C 98.4436,184.791 80.6102,178.458 66,163.5C 59.6236,154.539 56.1236,144.539 55.5,133.5 Z"/></g>
<g><path style="opacity:0.977" fill="#83b33c" d="M 137.5,146.5 C 162.289,149.454 177.455,163.121 183,187.5C 184.287,195.781 184.787,204.114 184.5,212.5C 149.503,204.474 133.836,182.474 137.5,146.5 Z"/></g>
<g><path style="opacity:0.944" fill="#52a044" d="M 302.5,157.5 C 313.031,156.972 322.865,159.306 332,164.5C 321.705,183.89 305.538,191.39 283.5,187C 279.099,186.089 274.932,184.589 271,182.5C 274.188,174.952 279.355,168.786 286.5,164C 291.607,160.935 296.94,158.769 302.5,157.5 Z"/></g>
<g><path style="opacity:0.944" fill="#a1c036" d="M 30.5,163.5 C 48.4773,161.769 63.4773,167.602 75.5,181C 52.8183,197.86 31.8183,196.027 12.5,175.5C 17.5643,169.977 23.5643,165.977 30.5,163.5 Z"/></g>
<g><path style="opacity:0.941" fill="#83b33c" d="M 349.5,176.5 C 359.676,175.125 368.676,177.625 376.5,184C 362.748,203.805 345.081,208.138 323.5,197C 329.461,186.519 338.127,179.685 349.5,176.5 Z"/></g>
<g><path style="opacity:0.939" fill="#52a044" d="M -0.5,218.5 C -0.5,216.833 -0.5,215.167 -0.5,213.5C 6.41785,206.705 14.0845,200.872 22.5,196C 32.1064,193.984 41.4398,194.984 50.5,199C 44.8371,213.34 34.3371,220.507 19,220.5C 12.4289,220.418 5.92892,219.751 -0.5,218.5 Z"/></g>
<g><path style="opacity:0.941" fill="#83b33c" d="M 73.5,198.5 C 76.5,198.5 79.5,198.5 82.5,198.5C 80.9532,226.71 65.9532,241.044 37.5,241.5C 36.1973,225.606 42.1973,213.44 55.5,205C 61.3009,201.903 67.3009,199.736 73.5,198.5 Z"/></g>
<g><path style="opacity:0.914" fill="#a1c036" d="M 633.5,208.5 C 646.528,207.385 654.695,213.052 658,225.5C 659.406,243.421 651.24,252.255 633.5,252C 619.385,247.615 614.218,238.115 618,223.5C 620.455,215.543 625.621,210.543 633.5,208.5 Z M 634.5,219.5 C 645.258,220.328 649.091,225.994 646,236.5C 639.922,243.285 634.255,242.952 629,235.5C 627.016,228.66 628.85,223.327 634.5,219.5 Z"/></g>
<g><path style="opacity:0.915" fill="#a1c036" d="M 879.5,208.5 C 897.439,207.94 905.606,216.606 904,234.5C 898.638,251.429 887.805,256.262 871.5,249C 863.931,242.504 861.431,234.338 864,224.5C 866.024,215.978 871.191,210.644 879.5,208.5 Z M 880.5,219.5 C 891.267,220.351 895.101,226.017 892,236.5C 885.402,243.513 879.736,242.846 875,234.5C 873.087,227.97 874.92,222.97 880.5,219.5 Z"/></g>
<g><path style="opacity:0.919" fill="#a1c036" d="M 574.5,209.5 C 579.511,209.334 584.511,209.501 589.5,210C 599.135,213.426 602.969,220.26 601,230.5C 598.927,233.73 597.094,237.063 595.5,240.5C 595.833,241.167 596.167,241.833 596.5,242.5C 602.92,243.06 604.92,246.227 602.5,252C 598.758,253.985 595.091,253.818 591.5,251.5C 589.004,247.489 585.837,244.156 582,241.5C 580.739,241.759 579.739,242.426 579,243.5C 578.667,246.167 578.333,248.833 578,251.5C 575.582,253.68 572.916,254.013 570,252.5C 568.375,240.596 568.042,228.596 569,216.5C 569.938,213.402 571.772,211.069 574.5,209.5 Z M 581.5,220.5 C 588.997,219.804 590.997,222.637 587.5,229C 579.749,230.091 577.749,227.258 581.5,220.5 Z"/></g>
<g><path style="opacity:0.91" fill="#a1c036" d="M 784.5,209.5 C 788.846,209.334 793.179,209.501 797.5,210C 802.414,213.171 802.747,216.837 798.5,221C 788.998,218.582 782.998,222.082 780.5,231.5C 782.901,240.319 788.568,243.319 797.5,240.5C 802.15,241.266 803.65,243.932 802,248.5C 800.992,250.259 799.492,251.426 797.5,252C 783.931,254.469 774.764,249.302 770,236.5C 767.562,223.366 772.395,214.366 784.5,209.5 Z"/></g>
<g><path style="opacity:0.934" fill="#a1c036" d="M 1185.5,209.5 C 1192.39,208.901 1199.06,209.735 1205.5,212C 1214.74,221.278 1214.74,230.612 1205.5,240C 1206.48,242.761 1208.48,244.094 1211.5,244C 1216.1,249.083 1214.93,252.25 1208,253.5C 1202.22,252.389 1198.22,249.055 1196,243.5C 1193.06,240.491 1190.73,240.824 1189,244.5C 1190.19,250.964 1187.69,253.797 1181.5,253C 1181,252.5 1180.5,252 1180,251.5C 1179.33,239.5 1179.33,227.5 1180,215.5C 1181.02,212.65 1182.85,210.65 1185.5,209.5 Z M 1192.5,220.5 C 1195.65,219.959 1198.15,220.959 1200,223.5C 1200.62,225.464 1200.12,227.131 1198.5,228.5C 1190.4,230.557 1188.4,227.89 1192.5,220.5 Z"/></g>
<g><path style="opacity:0.92" fill="#a1c036" d="M 527.5,210.5 C 534.589,210.116 541.589,210.616 548.5,212C 557.712,221.037 557.712,230.037 548.5,239C 543.886,240.546 539.219,241.879 534.5,243C 533.065,245.659 532.065,248.492 531.5,251.5C 527.811,254.536 524.978,253.87 523,249.5C 522.113,237.784 522.446,226.117 524,214.5C 525.376,213.295 526.542,211.962 527.5,210.5 Z M 535.5,220.5 C 542.804,219.931 545.137,222.765 542.5,229C 537.634,231.706 534.634,230.373 533.5,225C 533.519,223.167 534.185,221.667 535.5,220.5 Z"/></g>
<g><path style="opacity:0.929" fill="#a1c036" d="M 679.5,210.5 C 700.119,210.281 708.619,220.281 705,240.5C 700.832,249.512 693.666,253.845 683.5,253.5C 679.637,254.15 676.804,252.817 675,249.5C 674.085,237.442 674.419,225.442 676,213.5C 677.145,212.364 678.312,211.364 679.5,210.5 Z M 687.5,223.5 C 693.55,225.26 695.717,229.26 694,235.5C 688.293,242.395 685.127,241.395 684.5,232.5C 684.023,228.86 685.023,225.86 687.5,223.5 Z"/></g>
<g><path style="opacity:0.894" fill="#a1c036" d="M 722.5,210.5 C 725.862,210.07 728.695,211.07 731,213.5C 731.333,221.833 731.667,230.167 732,238.5C 734.107,242.501 737.273,243.501 741.5,241.5C 742.192,240.975 742.692,240.308 743,239.5C 743.085,230.425 743.752,221.425 745,212.5C 748.075,209.941 751.075,209.941 754,212.5C 754.667,221.833 754.667,231.167 754,240.5C 750.082,251.044 742.582,255.21 731.5,253C 725.384,250.549 721.884,246.049 721,239.5C 720.333,230.833 720.333,222.167 721,213.5C 721.513,212.473 722.013,211.473 722.5,210.5 Z"/></g>
<g><path style="opacity:0.904" fill="#a1c036" d="M 817.5,210.5 C 828.082,210.18 838.582,210.513 849,211.5C 849.998,218.47 846.832,221.636 839.5,221C 838.874,221.75 838.374,222.584 838,223.5C 837.667,232.167 837.333,240.833 837,249.5C 835.137,254.078 832.137,254.744 828,251.5C 827.667,242.5 827.333,233.5 827,224.5C 825.29,221.104 822.457,219.604 818.5,220C 813.55,217.357 813.217,214.19 817.5,210.5 Z"/></g>
<g><path style="opacity:0.897" fill="#a1c036" d="M 929.5,210.5 C 933.846,210.334 938.179,210.501 942.5,211C 950.488,212.757 952.488,217.09 948.5,224C 944.159,223.258 939.992,221.758 936,219.5C 934.745,220.211 933.579,221.044 932.5,222C 933.5,223 934.5,224 935.5,225C 948.354,227.546 952.854,235.046 949,247.5C 942.09,254.852 934.257,256.019 925.5,251C 920.641,246.951 919.308,241.951 921.5,236C 926.721,234.229 929.555,236.062 930,241.5C 934.211,245.807 937.711,245.307 940.5,240C 940.241,238.739 939.574,237.739 938.5,237C 932.232,235.484 927.065,232.317 923,227.5C 920.366,219.892 922.533,214.225 929.5,210.5 Z"/></g>
<g><path style="opacity:0.949" fill="#a1c036" d="M 995.5,210.5 C 997.989,210.298 1000.32,210.798 1002.5,212C 1004.94,217.099 1008.61,220.932 1013.5,223.5C 1015.2,222.636 1016.36,221.303 1017,219.5C 1015.81,213.036 1018.31,210.203 1024.5,211C 1025,211.5 1025.5,212 1026,212.5C 1026.81,225.879 1026.65,239.212 1025.5,252.5C 1023.58,253.641 1021.58,253.808 1019.5,253C 1017.3,250.766 1015.47,248.266 1014,245.5C 1010.98,240.735 1007.65,240.402 1004,244.5C 1004.69,249.48 1002.69,252.48 998,253.5C 996.289,253.561 994.956,252.894 994,251.5C 993.333,238.5 993.333,225.5 994,212.5C 994.717,211.956 995.217,211.289 995.5,210.5 Z"/></g>
<g><path style="opacity:0.91" fill="#a1c036" d="M 1057.5,210.5 C 1060.32,210.081 1062.49,211.081 1064,213.5C 1068.07,225.21 1072.24,236.877 1076.5,248.5C 1075.37,253.234 1072.7,254.401 1068.5,252C 1066.04,248.545 1063.04,245.711 1059.5,243.5C 1058.21,244.098 1056.87,244.598 1055.5,245C 1053.5,247.667 1051.5,250.333 1049.5,253C 1042.92,254.591 1040.76,252.091 1043,245.5C 1047.2,234.577 1051.2,223.577 1055,212.5C 1055.99,211.934 1056.83,211.267 1057.5,210.5 Z M 1058.5,228.5 C 1060.44,229.014 1061.44,230.347 1061.5,232.5C 1060.48,236.187 1059.15,236.354 1057.5,233C 1058.15,231.56 1058.48,230.06 1058.5,228.5 Z"/></g>
<g><path style="opacity:0.909" fill="#a1c036" d="M 1084.5,210.5 C 1095.08,210.18 1105.58,210.513 1116,211.5C 1116.71,213.899 1116.54,216.232 1115.5,218.5C 1112.63,219.815 1109.63,220.815 1106.5,221.5C 1106,222.5 1105.5,223.5 1105,224.5C 1104.67,233.5 1104.33,242.5 1104,251.5C 1100.71,254.311 1097.71,253.978 1095,250.5C 1094.67,241.5 1094.33,232.5 1094,223.5C 1093.17,222.667 1092.33,221.833 1091.5,221C 1082.7,221.402 1080.36,217.902 1084.5,210.5 Z"/></g>
<g><path style="opacity:0.909" fill="#a1c036" d="M 1132.5,210.5 C 1135.97,209.875 1138.8,210.875 1141,213.5C 1141.33,221.833 1141.67,230.167 1142,238.5C 1143.13,241.068 1145.13,242.402 1148,242.5C 1150.31,242.516 1151.97,241.516 1153,239.5C 1153.06,230.732 1153.72,222.065 1155,213.5C 1157.71,210.022 1160.71,209.689 1164,212.5C 1164.67,222.167 1164.67,231.833 1164,241.5C 1158.3,253.263 1149.46,256.43 1137.5,251C 1132.72,246.774 1130.39,241.441 1130.5,235C 1131.8,229.164 1131.8,223.331 1130.5,217.5C 1130.77,215.022 1131.44,212.689 1132.5,210.5 Z"/></g>
<g><path style="opacity:0.912" fill="#a1c036" d="M 1244.5,210.5 C 1248.18,209.725 1250.68,211.059 1252,214.5C 1255.67,224.5 1259.33,234.5 1263,244.5C 1264.63,252.889 1261.79,255.056 1254.5,251C 1252.99,247.436 1250.49,244.936 1247,243.5C 1242.51,245.321 1239.35,248.487 1237.5,253C 1235.23,253.758 1233.06,253.591 1231,252.5C 1230.33,249.833 1230.33,247.167 1231,244.5C 1235.03,232.906 1239.53,221.572 1244.5,210.5 Z M 1246.5,228.5 C 1248.3,229.315 1249.3,230.815 1249.5,233C 1247.85,236.354 1246.52,236.187 1245.5,232.5C 1245.85,231.151 1246.18,229.817 1246.5,228.5 Z"/></g>
<g><path style="opacity:0.942" fill="#a1c036" d="M 1279.5,210.5 C 1282.04,210.104 1284.21,210.771 1286,212.5C 1286.33,220.5 1286.67,228.5 1287,236.5C 1287.39,239.455 1288.89,241.622 1291.5,243C 1295.29,243.16 1298.95,243.826 1302.5,245C 1305.17,247.667 1305.17,250.333 1302.5,253C 1295.83,253.667 1289.17,253.667 1282.5,253C 1280.48,252.487 1278.98,251.32 1278,249.5C 1277.33,237.167 1277.33,224.833 1278,212.5C 1278.72,211.956 1279.22,211.289 1279.5,210.5 Z"/></g>
<g><path style="opacity:0.926" fill="#a1c036" d="M 1320.5,210.5 C 1327.84,210.334 1335.17,210.5 1342.5,211C 1344.9,213.38 1344.9,215.88 1342.5,218.5C 1339.56,219.244 1336.56,219.744 1333.5,220C 1330.65,220.879 1329.99,222.546 1331.5,225C 1334.57,225.147 1337.4,225.98 1340,227.5C 1341.47,233.704 1338.97,236.538 1332.5,236C 1329.63,238.84 1329.96,241.174 1333.5,243C 1336.76,243.212 1339.92,243.712 1343,244.5C 1345.12,247.338 1344.95,250.004 1342.5,252.5C 1335.88,253.628 1329.22,253.795 1322.5,253C 1321.07,252.535 1319.9,251.701 1319,250.5C 1318.33,237.833 1318.33,225.167 1319,212.5C 1319.72,211.956 1320.22,211.289 1320.5,210.5 Z"/></g>
<g><path style="opacity:0.902" fill="#a1c036" d="M 1366.5,210.5 C 1373.51,209.62 1380.01,210.953 1386,214.5C 1388.39,218.575 1387.72,221.908 1384,224.5C 1379.96,223.229 1376.13,221.562 1372.5,219.5C 1369.85,220.285 1369.18,221.785 1370.5,224C 1376.04,225.685 1380.87,228.518 1385,232.5C 1388.78,239.31 1387.95,245.477 1382.5,251C 1373.14,256.12 1364.98,254.62 1358,246.5C 1356.39,243.207 1356.23,239.873 1357.5,236.5C 1363,234.641 1366.33,236.641 1367.5,242.5C 1371.39,244.986 1374.73,244.32 1377.5,240.5C 1376.96,239.252 1376.29,238.085 1375.5,237C 1371.42,235.529 1367.42,233.862 1363.5,232C 1358.99,228.117 1357.49,223.284 1359,217.5C 1360.74,214.254 1363.24,211.921 1366.5,210.5 Z"/></g>
<g><path style="opacity:0.958" fill="#2b4849" d="M 437.5,211.5 C 453.208,208.257 463.041,214.257 467,229.5C 468.846,245.937 466.179,261.604 459,276.5C 447.981,300.187 431.314,318.854 409,332.5C 404.997,371.219 402.497,410.052 401.5,449C 401.335,474.52 404.168,499.687 410,524.5C 412.897,536.135 418.73,545.969 427.5,554C 434.54,558.343 442.206,560.343 450.5,560C 454.235,563.504 454.235,567.17 450.5,571C 424.082,578.385 404.249,569.885 391,545.5C 383.175,529.355 378.175,512.355 376,494.5C 372.951,469.584 371.951,444.584 373,419.5C 373.925,397.295 375.425,375.128 377.5,353C 377.167,351.167 376.833,349.333 376.5,347.5C 365.97,353.479 354.97,354.646 343.5,351C 340.751,348.81 341.085,347.143 344.5,346C 357.022,342.32 368.856,337.153 380,330.5C 382.904,303.641 389.238,277.641 399,252.5C 404.003,239.32 411.836,228.154 422.5,219C 427.324,215.921 432.324,213.421 437.5,211.5 Z M 443.5,221.5 C 450.252,221.416 454.085,224.749 455,231.5C 455.137,256.756 447.137,279.089 431,298.5C 424.689,305.143 418.022,311.476 411,317.5C 412.757,293.3 417.423,269.633 425,246.5C 428.312,235.8 434.479,227.467 443.5,221.5 Z"/></g>
<g><path style="opacity:0.958" fill="#a1c036" d="M 101.5,214.5 C 118.528,212.454 133.194,217.287 145.5,229C 150.737,234.4 155.403,240.234 159.5,246.5C 126.519,261.668 100.852,253.835 82.5,223C 84.1257,221.181 86.1257,219.848 88.5,219C 92.8927,217.329 97.226,215.829 101.5,214.5 Z"/></g>
<g><path style="opacity:0.935" fill="#a1c036" d="M 340.5,214.5 C 363.274,211.539 377.607,221.039 383.5,243C 363.063,248.946 349.23,241.78 342,221.5C 341.023,219.26 340.523,216.927 340.5,214.5 Z"/></g>
<g><path style="opacity:0.941" fill="#a1c036" d="M 71.5,243.5 C 88.8005,241.93 102.801,247.93 113.5,261.5C 90.9915,277.739 70.3249,275.739 51.5,255.5C 56.9776,249.431 63.6443,245.431 71.5,243.5 Z"/></g>
<g><path style="opacity:0.957" fill="#a1c036" d="M 142.5,272.5 C 145.167,272.5 147.833,272.5 150.5,272.5C 144.605,308.057 123.605,325.39 87.5,324.5C 87.4615,302.075 97.7948,286.575 118.5,278C 126.463,275.403 134.463,273.57 142.5,272.5 Z"/></g>
<g><path style="opacity:0.904" fill="#2b4849" d="M 1442.5,274.5 C 1475.65,272.484 1489.82,287.817 1485,320.5C 1476.46,338.354 1462.29,345.521 1442.5,342C 1422.94,335.058 1414.44,321.225 1417,300.5C 1421.01,287.326 1429.51,278.659 1442.5,274.5 Z M 1469.5,326.5 C 1465.3,332.098 1459.63,334.765 1452.5,334.5C 1435.89,333.223 1426.89,324.223 1425.5,307.5C 1429.45,286.524 1441.78,278.69 1462.5,284C 1476.18,292.365 1480.35,304.198 1475,319.5C 1474.06,322.595 1472.23,324.929 1469.5,326.5 Z M 1447.5,296.5 C 1450.93,296.107 1454.1,296.773 1457,298.5C 1457.9,301.025 1457.4,303.192 1455.5,305C 1452.83,305.567 1450.17,306.067 1447.5,306.5C 1447.5,303.167 1447.5,299.833 1447.5,296.5 Z"/></g>
<g><path style="opacity:0.937" fill="#52a044" d="M 58.5,276.5 C 68.5017,275.654 78.1683,276.988 87.5,280.5C 76.3195,300.948 59.9862,306.781 38.5,298C 38.0426,297.586 37.7093,297.086 37.5,296.5C 41.9664,287.03 48.9664,280.364 58.5,276.5 Z"/></g>
<g><path style="opacity:0.905" fill="#2b4849" d="M 1469.5,326.5 C 1466.15,326.665 1462.82,326.498 1459.5,326C 1458.27,322.157 1456.94,318.323 1455.5,314.5C 1452.81,312.73 1449.81,312.063 1446.5,312.5C 1446.5,317.167 1446.5,321.833 1446.5,326.5C 1443.83,326.5 1441.17,326.5 1438.5,326.5C 1438.5,314.5 1438.5,302.5 1438.5,290.5C 1445.84,290.334 1453.17,290.5 1460.5,291C 1466.47,293.103 1468.64,297.27 1467,303.5C 1465.83,306 1464,307.833 1461.5,309C 1463.81,310.109 1465.31,311.943 1466,314.5C 1466.86,318.625 1468.03,322.625 1469.5,326.5 Z M 1447.5,296.5 C 1447.5,299.833 1447.5,303.167 1447.5,306.5C 1450.17,306.067 1452.83,305.567 1455.5,305C 1457.4,303.192 1457.9,301.025 1457,298.5C 1454.1,296.773 1450.93,296.107 1447.5,296.5 Z"/></g>
<g><path style="opacity:0.937" fill="#52a044" d="M 309.5,315.5 C 316.748,314.578 321.582,317.578 324,324.5C 325.95,332.455 324.117,339.289 318.5,345C 309.486,348.962 303.319,346.462 300,337.5C 297.005,327.182 300.171,319.849 309.5,315.5 Z"/></g>
<g><path style="opacity:0.937" fill="#a1c036" d="M 466.5,315.5 C 474.661,314.165 479.828,317.499 482,325.5C 483.162,331.557 482.162,337.223 479,342.5C 474.483,346.242 469.316,347.409 463.5,346C 460.813,344.125 458.979,341.625 458,338.5C 457.149,332.747 457.483,327.08 459,321.5C 461.114,318.879 463.614,316.879 466.5,315.5 Z"/></g>
<g><path style="opacity:0.965" fill="#2b4849" d="M 983.5,321.5 C 990.823,320.746 995.99,323.746 999,330.5C 999.667,335.167 999.667,339.833 999,344.5C 996.815,360.493 995.149,376.493 994,392.5C 1001.25,372.952 1012.08,355.785 1026.5,341C 1041.93,328.598 1058.26,327.265 1075.5,337C 1086.51,347.001 1092.34,359.501 1093,374.5C 1093.91,394.571 1093.08,414.571 1090.5,434.5C 1090.27,450.918 1094.1,466.252 1102,480.5C 1103.5,482 1105,483.5 1106.5,485C 1110.77,486.274 1114.94,487.774 1119,489.5C 1121.03,493.302 1120.2,496.469 1116.5,499C 1092.5,504.083 1075.67,495.25 1066,472.5C 1061.88,460.514 1060.05,448.181 1060.5,435.5C 1062.41,413.845 1063.91,392.179 1065,370.5C 1064.97,361.05 1061.47,353.217 1054.5,347C 1052.41,345.97 1050.25,345.137 1048,344.5C 1038.5,348.093 1030.83,354.093 1025,362.5C 1000.06,399.662 988.727,440.662 991,485.5C 991.107,489.489 989.941,492.989 987.5,496C 970.243,499.28 961.076,492.113 960,474.5C 956.385,425.089 962.051,376.756 977,329.5C 978.479,326.172 980.645,323.506 983.5,321.5 Z"/></g>
<g><path style="opacity:0.966" fill="#2b4849" d="M 739.5,323.5 C 753.964,322.032 765.464,327.032 774,338.5C 777.229,345.387 775.396,350.221 768.5,353C 759.837,352.905 751.17,352.905 742.5,353C 716.364,356.304 703.031,371.137 702.5,397.5C 704.878,425.829 705.044,454.163 703,482.5C 699.532,495.988 691.032,500.821 677.5,497C 675.333,496.167 673.833,494.667 673,492.5C 673.472,473.334 674.305,454.167 675.5,435C 674.749,409.734 672.749,384.567 669.5,359.5C 669.119,352.431 671.785,346.931 677.5,343C 680.634,342.21 683.634,342.543 686.5,344C 691.198,350.079 694.364,356.912 696,364.5C 705.255,345.073 719.755,331.406 739.5,323.5 Z"/></g>
<g><path style="opacity:0.959" fill="#2b4849" d="M 858.5,324.5 C 871.213,324.126 883.88,324.626 896.5,326C 898.229,327.789 898.896,329.956 898.5,332.5C 880.584,330.487 863.584,333.654 847.5,342C 838.667,346.833 831.833,353.667 827,362.5C 812.562,388.688 806.562,416.688 809,446.5C 809.855,455.384 813.689,462.551 820.5,468C 825.076,469.476 829.743,469.81 834.5,469C 844.958,462.313 853.792,453.813 861,443.5C 878.551,418.06 891.551,390.393 900,360.5C 904.394,348.852 910.894,338.685 919.5,330C 924.09,328.385 926.923,329.885 928,334.5C 928.694,337.468 929.194,340.468 929.5,343.5C 922.549,374.441 918.549,405.775 917.5,437.5C 917.385,453.811 919.552,469.811 924,485.5C 926.939,495.059 923.439,499.393 913.5,498.5C 904.702,498.353 897.868,494.686 893,487.5C 887.491,475.115 884.991,462.115 885.5,448.5C 886.057,440.829 886.223,433.162 886,425.5C 878.247,437.34 870.247,449.007 862,460.5C 852.607,473.236 840.441,482.07 825.5,487C 807.833,490.455 794.333,484.621 785,469.5C 774.918,450.261 771.918,429.928 776,408.5C 783.011,373.51 802.177,347.676 833.5,331C 841.762,328.019 850.095,325.853 858.5,324.5 Z"/></g>
<g><path style="opacity:0.957" fill="#2b4849" d="M 1361.5,324.5 C 1376.9,323.906 1390.06,328.906 1401,339.5C 1407.36,348.447 1408.03,357.78 1403,367.5C 1396.4,375.027 1388.23,377.36 1378.5,374.5C 1381.72,345.553 1369.38,335.387 1341.5,344C 1325.53,353.563 1322.03,366.396 1331,382.5C 1333.54,385.372 1336.37,387.872 1339.5,390C 1354.83,398 1370.17,406 1385.5,414C 1407.51,430.345 1412.34,450.845 1400,475.5C 1388.57,491.14 1373.07,499.973 1353.5,502C 1335.44,505.054 1318.77,501.721 1303.5,492C 1288.98,478.773 1287.98,464.773 1300.5,450C 1317.74,441.174 1324.07,445.841 1319.5,464C 1321.72,479.38 1330.72,487.213 1346.5,487.5C 1356.01,487.126 1364.67,484.293 1372.5,479C 1386.98,462.411 1384.98,448.077 1366.5,436C 1349.86,428.35 1333.86,419.684 1318.5,410C 1304.22,397.496 1299.39,381.996 1304,363.5C 1311.25,343.921 1325.08,331.754 1345.5,327C 1350.97,326.133 1356.31,325.3 1361.5,324.5 Z"/></g>
<g><path style="opacity:0.959" fill="#2b4849" d="M 1212.5,325.5 C 1223.2,325.262 1233.87,325.762 1244.5,327C 1248.64,328.578 1249.31,330.911 1246.5,334C 1225.18,331.528 1205.85,336.528 1188.5,349C 1178.89,359.296 1171.72,371.129 1167,384.5C 1161.2,400.667 1158.03,417.334 1157.5,434.5C 1157.13,444.762 1159.3,454.428 1164,463.5C 1172.3,473.159 1181.46,473.993 1191.5,466C 1202.9,455.611 1212.4,443.778 1220,430.5C 1233.16,409.696 1242.83,387.363 1249,363.5C 1253.18,352.305 1259.01,342.138 1266.5,333C 1272.63,328.657 1276.47,330.157 1278,337.5C 1278.67,342.833 1278.67,348.167 1278,353.5C 1268.85,390.777 1265.85,428.444 1269,466.5C 1270.91,475.319 1272.75,484.153 1274.5,493C 1274.65,495.034 1273.98,496.701 1272.5,498C 1254.18,502.589 1242.68,495.756 1238,477.5C 1237.23,473.853 1236.56,470.186 1236,466.5C 1235.58,453.403 1235.42,440.403 1235.5,427.5C 1234.19,428.313 1233.02,429.313 1232,430.5C 1224.82,444.208 1216.15,456.875 1206,468.5C 1197.75,477.417 1187.92,483.917 1176.5,488C 1160.38,492.071 1147.21,487.571 1137,474.5C 1125.46,455.779 1121.46,435.445 1125,413.5C 1131.27,373.734 1152.77,345.901 1189.5,330C 1197.22,328.05 1204.89,326.55 1212.5,325.5 Z"/></g>
<g><path style="opacity:0.944" fill="#2b4849" d="M 692.5,665.5 C 685.833,665.5 679.167,665.5 672.5,665.5C 658.41,660.557 650.243,650.557 648,635.5C 644.181,613.3 649.514,593.633 664,576.5C 669.571,570.258 675.738,564.758 682.5,560C 665.851,545.592 646.684,536.092 625,531.5C 613.704,567.783 592.204,596.283 560.5,617C 538.942,628.495 518.776,626.662 500,611.5C 491.206,598.841 490.206,585.508 497,571.5C 514.568,542.782 540.068,525.616 573.5,520C 582.191,518.983 590.857,517.816 599.5,516.5C 603.796,490.687 605.963,464.687 606,438.5C 595.32,454.848 582.82,469.682 568.5,483C 545.802,495.794 526.635,491.961 511,471.5C 502.017,453.341 499.684,434.341 504,414.5C 510.009,388.308 522.842,366.141 542.5,348C 557.958,335.514 575.625,329.847 595.5,331C 600.083,331.562 604.417,332.895 608.5,335C 611.076,337.651 612.409,340.818 612.5,344.5C 606.657,343.336 600.823,342.002 595,340.5C 583.751,342.402 574.417,347.736 567,356.5C 547.137,380.747 536.303,408.58 534.5,440C 534.407,447.274 535.24,454.441 537,461.5C 542.349,472.919 550.849,476.086 562.5,471C 579.703,456.451 593.203,438.951 603,418.5C 603.511,416.122 604.178,413.788 605,411.5C 605.215,400.468 605.881,389.468 607,378.5C 608.097,371.126 611.597,365.293 617.5,361C 624.771,359.221 628.938,362.055 630,369.5C 635.358,409.357 636.691,449.357 634,489.5C 633.129,499.688 631.295,509.688 628.5,519.5C 646.951,523.373 664.618,529.54 681.5,538C 687.59,541.46 693.423,545.294 699,549.5C 724.569,535.643 751.736,526.143 780.5,521C 829.17,512.333 877.837,512.333 926.5,521C 966.264,528.556 1001.93,544.722 1033.5,569.5C 1053.61,561.045 1074.61,556.878 1096.5,557C 1110.83,556.333 1125.17,556.333 1139.5,557C 1177.18,558.805 1214.84,560.805 1252.5,563C 1280.52,563.889 1308.52,563.555 1336.5,562C 1358.52,560.578 1379.52,555.244 1399.5,546C 1428.65,530.517 1437.98,507.017 1427.5,475.5C 1436.85,474.763 1443.68,478.429 1448,486.5C 1450.74,517.189 1438.57,540.023 1411.5,555C 1397.29,562.305 1382.29,567.305 1366.5,570C 1332.02,575.156 1297.35,576.822 1262.5,575C 1213.36,571.939 1164.19,569.439 1115,567.5C 1095.6,566.992 1076.43,568.826 1057.5,573C 1051.34,574.439 1045.68,576.939 1040.5,580.5C 1044.25,590.779 1044.42,601.113 1041,611.5C 1034.61,622.632 1025.95,624.966 1015,618.5C 1008.39,603.495 1010.89,589.995 1022.5,578C 1002.3,560.73 979.302,548.397 953.5,541C 878.411,519.75 804.078,522.083 730.5,548C 723.379,551.061 716.379,554.394 709.5,558C 737.06,584.323 741.226,613.823 722,646.5C 714.08,656.029 704.247,662.363 692.5,665.5 Z M 583.5,529.5 C 588.214,529.173 592.88,529.507 597.5,530.5C 591.716,559.926 577.383,584.092 554.5,603C 541.957,613.519 528.623,614.852 514.5,607C 505.555,598.917 503.055,589.084 507,577.5C 512.29,565.542 520.457,556.042 531.5,549C 547.469,538.625 564.802,532.125 583.5,529.5 Z M 690.5,569.5 C 693.764,570.927 696.264,573.261 698,576.5C 711.981,597.94 712.981,619.94 701,642.5C 693.848,652.884 684.348,656.051 672.5,652C 661.924,640.936 657.757,627.769 660,612.5C 664.95,594.396 675.117,580.062 690.5,569.5 Z M 1029.5,590.5 C 1030.79,592.048 1031.46,594.048 1031.5,596.5C 1031.84,601.825 1030.34,606.492 1027,610.5C 1026.08,608.966 1025.58,607.299 1025.5,605.5C 1026.08,600.269 1027.41,595.269 1029.5,590.5 Z"/></g>
<g><path style="opacity:0.971" fill="#2b4849" d="M 307.5,360.5 C 311.637,360.146 315.637,360.646 319.5,362C 321.604,364.042 322.771,366.542 323,369.5C 323.423,406.88 324.923,444.213 327.5,481.5C 329.032,493.463 323.866,499.129 312,498.5C 299.782,498.283 293.449,491.95 293,479.5C 291.919,451.451 292.585,423.451 295,395.5C 295.895,386.252 297.895,377.252 301,368.5C 302.305,365.039 304.471,362.372 307.5,360.5 Z"/></g>
<g><path style="opacity:0.971" fill="#2b4849" d="M 457.5,365.5 C 467.436,364.763 472.769,369.429 473.5,379.5C 469.37,416.442 468.537,453.442 471,490.5C 470.55,492.519 469.717,494.352 468.5,496C 451.803,502.243 441.97,496.743 439,479.5C 435.306,444.318 438.973,409.985 450,376.5C 451.549,372.13 454.049,368.463 457.5,365.5 Z"/></g>
<g><path style="opacity:0.955" fill="#a1c036" d="M 1454.5,385.5 C 1467.49,404.303 1467.66,423.303 1455,442.5C 1448.63,450.539 1441.29,457.539 1433,463.5C 1417.1,431.08 1424.27,405.08 1454.5,385.5 Z"/></g>
<g><path style="opacity:0.952" fill="#52a044" d="M 1499.5,441.5 C 1499.5,442.5 1499.5,443.5 1499.5,444.5C 1488.51,469.325 1469.84,477.992 1443.5,470.5C 1453.04,443.397 1471.7,433.731 1499.5,441.5 Z"/></g>
</svg>
